#!OML:ASF F:\VICON\USERDATA\INSTALL\rory3\rory3.ASF
:FULLY-SPECIFIED
:DEGREES
1633
root -5.15788 18.0647 -0.203378 23.0085 19.8304 11.092
lowerback 13.0653 -1.94223 1.02712
upperback 6.37167 -2.1835 6.83703
thorax -0.365982 -1.13157 6.9181
lowerneck -11.9038 -7.4194 -9.09751
upperneck 29.3594 -10.473 7.43341
head 12.61 -4.65549 2.86733
rclavicle -1.27222e-014 -5.08889e-014
rhumerus 18.5377 -22.9428 -77.3519
rradius 34.0662
rwrist -25.2958
rhand -36.4309 -24.9092
rfingers 7.12502
rthumb -9.5256 -54.6739
lclavicle -1.27222e-014 -5.08889e-014
lhumerus 5.03749 -61.3623 88.876
lradius 70.7196
lwrist 76.3311
lhand -15.0685 59.1136
lfingers 7.12502
lthumb 11.0987 -631.2
rfemur -39.3211 -6.87881 8.97824
rtibia 34.6682
rfoot -15.1562 -13.0443
rtoes 6.32849
lfemur -19.3989 -4.64281 -17.3605
ltibia 23.6743
lfoot -6.41798 7.97555
ltoes -22.7288
1634
root -5.1385 18.0705 -0.231933 23.0363 20.1747 11.1661
lowerback 12.9535 -1.81936 1.13023
upperback 6.32233 -2.00945 6.95256
thorax -0.376504 -1.04262 6.95752
lowerneck -11.677 -7.58911 -9.23584
upperneck 29.2902 -10.6834 7.41973
head 12.5657 -4.7675 2.8579
rclavicle 2.22639e-014 3.18055e-014
rhumerus 18.3523 -21.8783 -77.8756
rradius 34.0358
rwrist -25.996
rhand -35.9613 -25.1429
rfingers 7.12502
rthumb -9.07249 -54.9278
lclavicle 2.22639e-014 3.18055e-014
lhumerus 3.61608 -60.5478 89.734
lradius 70.25
lwrist 77.0786
lhand -15.9886 59.4051
lfingers 7.12502
lthumb 10.2112 -630.863
rfemur -39.1928 -6.98844 8.85005
rtibia 34.4997
rfoot -15.1149 -13.3719
rtoes 6.24393
lfemur -19.7403 -4.61614 -17.1233
ltibia 23.7594
lfoot -6.00455 8.30155
ltoes -23.5843
1635
root -5.11979 18.0685 -0.261079 22.9473 20.6653 11.2348
lowerback 12.9579 -1.70564 1.3011
upperback 6.34661 -1.83471 7.09532
thorax -0.372749 -0.952426 6.99148
lowerneck -11.632 -7.82106 -9.40956
upperneck 29.2027 -10.9858 7.48894
head 12.5707 -4.90909 2.86467
rclavicle 1.43125e-014 -5.725e-014
rhumerus 18.2238 -20.8213 -78.2785
rradius 33.8302
rwrist -26.375
rhand -35.0057 -25.0897
rfingers 7.12502
rthumb -8.1503 -54.9125
lclavicle 1.43125e-014 -5.725e-014
lhumerus 2.56054 -59.5988 90.3589
lradius 69.7108
lwrist 77.278
lhand -17.0448 59.6063
lfingers 7.12502
lthumb 9.19213 -630.614
rfemur -38.9218 -7.11749 8.73323
rtibia 34.3928
rfoot -15.1721 -13.7326
rtoes 6.07479
lfemur -19.8881 -4.75046 -16.8181
ltibia 23.7242
lfoot -5.10148 8.88862
ltoes -22.1393
1636
root -5.09434 18.0759 -0.281742 22.8352 21.0954 11.402
lowerback 12.8868 -1.58224 1.37116
upperback 6.35892 -1.66391 7.217
thorax -0.338044 -0.866664 7.05838
lowerneck -11.4868 -8.04406 -9.53663
upperneck 29.1696 -11.2566 7.42424
head 12.5617 -5.04901 2.82165
rclavicle 5.08889e-014 3.49861e-014
rhumerus 17.7317 -19.5331 -78.4149
rradius 33.7536
rwrist -26.8509
rhand -33.8133 -24.7122
rfingers 7.12502
rthumb -6.99932 -54.5765
lclavicle 5.08889e-014 3.49861e-014
lhumerus 1.29975 -58.73 91.1462
lradius 69.1228
lwrist 77.7886
lhand -19.0499 58.5606
lfingers 7.12502
lthumb 7.25695 -631.584
rfemur -38.5558 -7.3005 8.4919
rtibia 34.3465
rfoot -15.2527 -13.9787
rtoes 6.17938
lfemur -19.942 -4.89169 -16.6824
ltibia 23.6488
lfoot -4.56273 9.57847
ltoes -19.0186
1637
root -5.05834 18.0871 -0.29076 22.7005 21.0466 11.7041
lowerback 12.7779 -1.28055 1.24263
upperback 6.41392 -1.29473 7.14644
thorax -0.262768 -0.685584 7.00317
lowerneck -11.2863 -8.27246 -9.35497
upperneck 29.1023 -11.579 7.26182
head 12.5024 -5.19187 2.68423
rclavicle 1.27222e-014 6.36111e-015
rhumerus 17.1149 -18.4677 -78.6606
rradius 33.7875
rwrist -27.4263
rhand -32.6609 -24.5039
rfingers 7.12502
rthumb -5.88679 -54.4021
lclavicle 1.27222e-014 6.36111e-015
lhumerus -0.499263 -57.9994 92.2738
lradius 68.5762
lwrist 78.537
lhand -16.7311 60.9382
lfingers 7.12502
lthumb 9.49484 -810.704
rfemur -38.1909 -7.22817 7.9468
rtibia 34.2996
rfoot -15.2938 -14.0257
rtoes 6.20875
lfemur -19.8693 -4.66509 -16.9553
ltibia 23.6395
lfoot -4.24251 10.0628
ltoes -17.8024
1638
root -5.03907 18.0882 -0.323227 22.5533 21.6042 12.004
lowerback 13.0856 -1.14072 1.34254
upperback 6.38055 -1.07538 7.16564
thorax -0.490422 -0.568761 6.94808
lowerneck -11.0719 -8.54753 -9.31899
upperneck 28.9254 -11.9976 7.33539
head 12.4335 -5.36746 2.64515
rclavicle -3.02153e-014 7.95139e-014
rhumerus 16.8149 -17.6678 -79.1864
rradius 33.654
rwrist -27.5443
rhand -31.8064 -24.5905
rfingers 7.12502
rthumb -5.06182 -54.51
lclavicle -3.02153e-014 7.95139e-014
lhumerus -2.24129 -56.9923 93.2872
lradius 68.2664
lwrist 78.674
lhand -15.5456 59.4916
lfingers 7.12502
lthumb 10.6385 -630.798
rfemur -37.7266 -7.36617 7.5418
rtibia 34.2168
rfoot -15.5887 -14.3724
rtoes 6.78769
lfemur -19.9399 -4.67103 -16.9866
ltibia 23.6366
lfoot -3.44378 10.1078
ltoes -16.9775
1639
root -5.01137 18.0809 -0.368997 22.8664 22.6994 12.0661
lowerback 12.7812 -1.2014 1.98132
upperback 6.20472 -1.07908 7.37263
thorax -0.519563 -0.555208 6.79686
lowerneck -10.9834 -8.83727 -9.42387
upperneck 28.8717 -12.3868 7.3489
head 12.4448 -5.54617 2.607
rclavicle -6.36111e-015 5.725e-014
rhumerus 16.6672 -16.6394 -79.585
rradius 33.4549
rwrist -27.8019
rhand -31.1054 -25.0961
rfingers 7.12502
rthumb -4.38494 -55.0307
lclavicle -6.36111e-015 5.725e-014
lhumerus -3.50161 -55.7642 94.02
lradius 68.0129
lwrist 78.2913
lhand -19.1805 56.7588
lfingers 7.12502
lthumb 7.13093 -633.381
rfemur -37.7533 -7.77312 7.47078
rtibia 34.1159
rfoot -15.9625 -15.0133
rtoes 7.53813
lfemur -20.7029 -5.37229 -16.5626
ltibia 23.5836
lfoot -2.21119 10.5185
ltoes -15.8342
1640
root -4.9806 18.087 -0.399172 22.6906 23.2086 12.1636
lowerback 12.8274 -1.10699 2.17669
upperback 6.23128 -0.923031 7.53035
thorax -0.532017 -0.473522 6.83663
lowerneck -10.837 -9.05161 -9.5685
upperneck 28.8343 -12.666 7.36542
head 12.4427 -5.68229 2.59694
rclavicle 1.90833e-014 3.49861e-014
rhumerus 16.5597 -15.5723 -80.0372
rradius 33.2331
rwrist -28.0394
rhand -30.0903 -25.4493
rfingers 7.12502
rthumb -3.40465 -55.4018
lclavicle 1.90833e-014 3.49861e-014
lhumerus -4.61443 -54.5695 94.5706
lradius 67.711
lwrist 78.0397
lhand -14.7849 58.7221
lfingers 7.12502
lthumb 11.3722 -631.606
rfemur -37.3328 -7.92275 7.26517
rtibia 34.0319
rfoot -16.0281 -15.3742
rtoes 7.4036
lfemur -20.7855 -5.34826 -16.4978
ltibia 23.5881
lfoot -1.16716 10.6428
ltoes -15.6661
1641
root -4.95154 18.0975 -0.411187 22.011 22.8283 12.293
lowerback 13.2946 -0.659009 1.80304
upperback 6.50397 -0.363537 7.55261
thorax -0.549641 -0.204296 7.01171
lowerneck -10.6431 -9.30791 -9.68585
upperneck 28.7333 -13.0285 7.44597
head 12.4176 -5.84694 2.59454
rclavicle -1.90833e-014 -8.5875e-014
rhumerus 16.5237 -14.9339 -80.6495
rradius 33.0492
rwrist -28.1733
rhand -28.7745 -25.4242
rfingers 7.12502
rthumb -2.13391 -55.3932
lclavicle -1.90833e-014 -8.5875e-014
lhumerus -5.57443 -53.5415 94.892
lradius 67.5748
lwrist 78.0353
lhand -18.261 57.485
lfingers 7.12502
lthumb 8.01845 -632.687
rfemur -36.5519 -7.58025 6.8618
rtibia 33.9556
rfoot -15.9787 -15.329
rtoes 6.86266
lfemur -19.9998 -4.34442 -16.8581
ltibia 23.5758
lfoot -0.603116 10.6471
ltoes -15.3461
